<svg width="42" height="42" viewBox="0 0 42 42" fill="none" xmlns="http://www.w3.org/2000/svg">
<g id="60e4a1e7380756fecde7fb9c_icon-section-about-2-crypto-template.svg" opacity="0.84992" clip-path="url(#clip0_2_535)">
<path id="Vector" opacity="0.4" d="M30.7177 0H11.3709C4.32055 0 0.325989 3.99456 0.325989 11.0448V30.3733C0.325989 37.4237 4.32055 41.4183 11.3709 41.4183H30.7177C37.7681 41.4183 41.7442 37.4237 41.7442 30.3733V11.0448C41.7442 3.99456 37.7681 0 30.7177 0Z" fill="white"/>
<path id="Vector_2" d="M11.4439 15.2605C10.5051 15.2605 9.73193 16.0336 9.73193 16.9908V31.2203C9.73193 32.1591 10.5051 32.9322 11.4439 32.9322C12.4011 32.9322 13.1743 32.1591 13.1743 31.2203V16.9908C13.1743 16.0336 12.4011 15.2605 11.4439 15.2605Z" fill="white"/>
<path id="Vector_3" d="M21.1083 8.46765C20.1695 8.46765 19.3964 9.24079 19.3964 10.198V31.22C19.3964 32.1589 20.1695 32.9321 21.1083 32.9321C22.0655 32.9321 22.8386 32.1589 22.8386 31.22V10.198C22.8386 9.24079 22.0655 8.46765 21.1083 8.46765Z" fill="white"/>
<path id="Vector_4" d="M30.6438 22.771C29.6866 22.771 28.9134 23.5442 28.9134 24.5014V31.2203C28.9134 32.1592 29.6866 32.9323 30.6253 32.9323C31.5825 32.9323 32.3557 32.1592 32.3557 31.2203V24.5014C32.3557 23.5442 31.5825 22.771 30.6438 22.771Z" fill="white"/>
</g>
<defs>
<clipPath id="clip0_2_535">
<rect width="42" height="42" fill="white"/>
</clipPath>
</defs>
</svg>
