<svg width="178" height="30" viewBox="0 0 178 30" fill="none" xmlns="http://www.w3.org/2000/svg">
<g id="60e4a1e73807560ecae7fb97_logo-company-3-crypto-template.svg" clip-path="url(#clip0_2_467)">
<path id="Vector" d="M22.6021 12.775C18.8417 12.775 15.7892 9.73412 15.7892 5.9969C15.7892 5.50943 15.8473 5.04518 15.9401 4.58093H6.88721C3.38211 4.58093 0.538574 7.41286 0.538574 10.8948V22.5591C0.538574 26.0526 3.38211 28.8729 6.88721 28.8729H18.6096C22.1263 28.8729 24.9582 26.041 24.9582 22.5591V12.3456C24.2386 12.6125 23.4378 12.775 22.6021 12.775Z" fill="#0328EE"/>
<path id="Vector_2" d="M24.9691 22.5591V12.3456C24.2379 12.6125 23.437 12.775 22.613 12.775C18.8525 12.775 15.8001 9.73412 15.8001 5.9969C15.8001 5.50943 15.8581 5.04518 15.951 4.58093H6.89807C3.41619 4.58093 0.595863 7.36644 0.549438 10.8252C8.90596 14.2722 17.4946 18.4621 24.9226 23.3599C24.9458 23.093 24.9691 22.826 24.9691 22.5591Z" fill="#0328EE"/>
<path id="Vector_3" d="M23.1236 10.4338C25.8511 10.4338 28.0563 8.24019 28.0563 5.52432C28.0563 2.82006 25.8511 0.614868 23.1236 0.614868C20.3961 0.614868 18.1909 2.80845 18.1909 5.52432C18.1909 8.22858 20.3961 10.4338 23.1236 10.4338Z" fill="white"/>
<path id="Vector_4" d="M53.0088 16.6789C52.8147 17.5039 52.4871 18.3047 52.026 19.0813C51.565 19.8336 50.9947 20.513 50.3152 21.1197C49.6357 21.7021 48.8592 22.1753 47.9856 22.5393C47.112 22.8791 46.1777 23.0489 45.1828 23.0489C44.0422 23.0489 42.9623 22.8305 41.9431 22.3937C40.9482 21.9326 40.0624 21.3138 39.2859 20.5373C38.5336 19.7608 37.927 18.8629 37.4659 17.8437C37.0291 16.8002 36.8107 15.6839 36.8107 14.4948C36.8107 13.3058 37.0291 12.2016 37.4659 11.1824C37.927 10.139 38.5336 9.22896 39.2859 8.45242C40.0624 7.67588 40.9482 7.06921 41.9431 6.6324C42.9623 6.17133 44.0422 5.9408 45.1828 5.9408C46.1777 5.9408 47.112 6.1228 47.9856 6.4868C48.8592 6.82654 49.6357 7.29974 50.3152 7.90642C50.9947 8.48882 51.565 9.1683 52.026 9.94484C52.4871 10.6971 52.8147 11.4857 53.0088 12.3108H48.8228C48.6287 11.874 48.3617 11.4857 48.022 11.146C47.7308 10.8548 47.3547 10.5879 46.8936 10.3452C46.4325 10.0783 45.8622 9.94484 45.1828 9.94484C43.9937 9.94484 42.9987 10.3574 42.1979 11.1824C41.3971 12.0075 40.9967 13.1116 40.9967 14.4948C40.9967 15.878 41.3971 16.9822 42.1979 17.8073C42.9987 18.6323 43.9937 19.0449 45.1828 19.0449C45.8622 19.0449 46.4325 18.9235 46.8936 18.6809C47.3547 18.4382 47.7308 18.1713 48.022 17.8801C48.3617 17.5403 48.6287 17.1399 48.8228 16.6789H53.0088Z" fill="white"/>
<path id="Vector_5" d="M59.9249 14.4948C59.9249 15.878 60.3253 16.9822 61.1261 17.8073C61.9269 18.6323 62.9219 19.0449 64.111 19.0449C65.3 19.0449 66.295 18.6323 67.0958 17.8073C67.8966 16.9822 68.297 15.878 68.297 14.4948C68.297 13.1116 67.8966 12.0075 67.0958 11.1824C66.295 10.3574 65.3 9.94484 64.111 9.94484C62.9219 9.94484 61.9269 10.3574 61.1261 11.1824C60.3253 12.0075 59.9249 13.1116 59.9249 14.4948ZM72.483 14.4948C72.483 15.6839 72.2525 16.8002 71.7914 17.8437C71.3546 18.8629 70.748 19.7608 69.9714 20.5373C69.2191 21.3138 68.3334 21.9326 67.3142 22.3937C66.3192 22.8305 65.2515 23.0489 64.111 23.0489C62.9704 23.0489 61.8905 22.8305 60.8713 22.3937C59.8764 21.9326 58.9906 21.3138 58.2141 20.5373C57.4618 19.7608 56.8551 18.8629 56.3941 17.8437C55.9573 16.8002 55.7389 15.6839 55.7389 14.4948C55.7389 13.3058 55.9573 12.2016 56.3941 11.1824C56.8551 10.139 57.4618 9.22896 58.2141 8.45242C58.9906 7.67588 59.8764 7.06921 60.8713 6.6324C61.8905 6.17133 62.9704 5.9408 64.111 5.9408C65.2515 5.9408 66.3192 6.17133 67.3142 6.6324C68.3334 7.06921 69.2191 7.67588 69.9714 8.45242C70.748 9.22896 71.3546 10.139 71.7914 11.1824C72.2525 12.2016 72.483 13.3058 72.483 14.4948Z" fill="white"/>
<path id="Vector_6" d="M84.1141 5.9408C84.9634 5.9408 85.6914 6.06213 86.2981 6.3048C86.9048 6.5232 87.4023 6.76587 87.7905 7.03281C88.2273 7.34828 88.5792 7.71228 88.8461 8.12482C89.2344 7.71228 89.6833 7.34828 90.193 7.03281C90.6298 6.76587 91.1515 6.5232 91.7582 6.3048C92.3648 6.06213 93.0322 5.9408 93.7602 5.9408C95.5802 5.9408 97.0362 6.5232 98.1282 7.68801C99.2202 8.85283 99.7662 10.5757 99.7662 12.8568V22.8669H95.5802V13.2208C95.5802 12.2016 95.3011 11.4008 94.743 10.8184C94.2091 10.236 93.5782 9.94484 92.8502 9.94484C92.1222 9.94484 91.4791 10.236 90.921 10.8184C90.3871 11.4008 90.1202 12.2016 90.1202 13.2208V22.8669H85.9341V13.2208C85.9341 12.2016 85.655 11.4008 85.0969 10.8184C84.563 10.236 83.9321 9.94484 83.2041 9.94484C82.4761 9.94484 81.833 10.236 81.2749 10.8184C80.741 11.4008 80.4741 12.2016 80.4741 13.2208V22.8669H76.288V6.1228H79.382L80.1101 7.76081C80.4498 7.42108 80.8259 7.11774 81.2385 6.8508C81.5782 6.6324 81.9907 6.42613 82.4761 6.232C82.9614 6.03786 83.5074 5.9408 84.1141 5.9408Z" fill="white"/>
<path id="Vector_7" d="M112.87 5.9408C113.914 5.9408 114.909 6.1592 115.855 6.596C116.801 7.00854 117.626 7.60308 118.33 8.37962C119.058 9.1319 119.629 10.0298 120.041 11.0732C120.478 12.1167 120.696 13.2572 120.696 14.4948C120.696 15.7324 120.478 16.873 120.041 17.9165C119.629 18.9599 119.058 19.87 118.33 20.6465C117.626 21.3988 116.801 21.9933 115.855 22.4301C114.909 22.8427 113.914 23.0489 112.87 23.0489C112.166 23.0489 111.548 22.964 111.014 22.7941C110.504 22.6243 110.055 22.4422 109.667 22.2481C109.23 22.0054 108.842 21.7264 108.502 21.4109V28.691H104.316V6.1228H107.41L108.138 7.76081C108.502 7.42108 108.927 7.11774 109.412 6.8508C109.825 6.6324 110.322 6.42613 110.905 6.232C111.487 6.03786 112.142 5.9408 112.87 5.9408ZM108.138 14.4948C108.138 15.878 108.539 16.9822 109.339 17.8073C110.14 18.6323 111.135 19.0449 112.324 19.0449C113.513 19.0449 114.508 18.6323 115.309 17.8073C116.11 16.9822 116.51 15.878 116.51 14.4948C116.51 13.1116 116.11 12.0075 115.309 11.1824C114.508 10.3574 113.513 9.94484 112.324 9.94484C111.135 9.94484 110.14 10.3574 109.339 11.1824C108.539 12.0075 108.138 13.1116 108.138 14.4948Z" fill="white"/>
<path id="Vector_8" d="M131.44 5.9408C132.386 5.9408 133.26 6.11066 134.061 6.4504C134.862 6.76587 135.553 7.21481 136.136 7.79721C136.718 8.37962 137.167 9.07123 137.483 9.87204C137.822 10.6728 137.992 11.5464 137.992 12.4928V22.8669H134.898L134.17 21.2289C133.782 21.5686 133.357 21.872 132.896 22.1389C132.484 22.3816 131.986 22.6 131.404 22.7941C130.821 22.964 130.166 23.0489 129.438 23.0489C127.618 23.0489 126.223 22.6121 125.252 21.7385C124.281 20.8406 123.796 19.7001 123.796 18.3169C123.796 17.4918 123.954 16.7395 124.269 16.06C124.609 15.3563 125.167 14.7618 125.944 14.2764C126.72 13.7668 127.739 13.3786 129.001 13.1116C130.287 12.8204 131.889 12.6748 133.806 12.6748C133.806 11.7527 133.551 11.0368 133.042 10.5272C132.556 10.0176 131.901 9.76284 131.076 9.76284C130.518 9.76284 130.069 9.8599 129.729 10.054C129.414 10.2482 129.159 10.4544 128.965 10.6728C128.746 10.9397 128.601 11.2431 128.528 11.5828H124.342C124.439 10.8063 124.657 10.0783 124.997 9.39883C125.361 8.71936 125.847 8.12482 126.453 7.61521C127.06 7.10561 127.776 6.7052 128.601 6.414C129.45 6.09853 130.397 5.9408 131.44 5.9408ZM130.166 19.7729C131.258 19.7729 132.132 19.4574 132.787 18.8265C133.466 18.1713 133.806 17.3341 133.806 16.3149V15.5868C132.568 15.5868 131.574 15.6475 130.821 15.7688C130.069 15.8659 129.474 16.0236 129.038 16.2421C128.625 16.4362 128.346 16.6789 128.2 16.9701C128.055 17.2613 127.982 17.5889 127.982 17.9529C127.982 18.4139 128.188 18.8386 128.601 19.2269C129.013 19.5909 129.535 19.7729 130.166 19.7729Z" fill="white"/>
<path id="Vector_9" d="M151.082 5.9408C152.077 5.9408 152.987 6.11066 153.812 6.4504C154.637 6.76587 155.341 7.23908 155.923 7.87002C156.53 8.47669 156.991 9.21683 157.306 10.0904C157.646 10.964 157.816 11.9468 157.816 13.0388V22.8669H153.63V13.5848C153.63 12.4928 153.302 11.6192 152.647 10.964C152.016 10.2846 151.191 9.94484 150.172 9.94484C149.153 9.94484 148.316 10.2846 147.66 10.964C147.029 11.6192 146.714 12.4928 146.714 13.5848V22.8669H142.528V6.1228H145.622L146.35 7.76081C146.763 7.42108 147.211 7.11774 147.697 6.8508C148.109 6.6324 148.595 6.42613 149.153 6.232C149.735 6.03786 150.378 5.9408 151.082 5.9408Z" fill="white"/>
<path id="Vector_10" d="M160.56 6.1228H164.928L169.114 17.043L172.936 6.1228H177.305C176.115 9.18043 175.036 11.9469 174.065 14.4221C173.652 15.4899 173.24 16.5334 172.827 17.5526C172.439 18.5718 172.087 19.5061 171.772 20.3554C171.456 21.1805 171.189 21.8721 170.971 22.4302C170.752 22.9884 170.619 23.316 170.57 23.413C170.158 24.408 169.745 25.2452 169.333 25.9246C168.945 26.6284 168.52 27.1987 168.059 27.6355C167.598 28.0723 167.1 28.3877 166.566 28.5819C166.033 28.776 165.426 28.8731 164.746 28.8731C164.552 28.8731 164.358 28.8609 164.164 28.8367C163.994 28.8367 163.849 28.8245 163.727 28.8003C163.557 28.776 163.412 28.7396 163.29 28.6911V25.233C164.213 25.233 164.916 25.0268 165.402 24.6142C165.911 24.2017 166.299 23.68 166.566 23.049L166.93 22.139L160.56 6.1228Z" fill="white"/>
</g>
<defs>
<clipPath id="clip0_2_467">
<rect width="177" height="29" fill="white" transform="translate(0.492188 0.53125)"/>
</clipPath>
</defs>
</svg>
