<svg width="181" height="30" viewBox="0 0 181 30" fill="none" xmlns="http://www.w3.org/2000/svg">
<g id="60e4a1e73807566c70e7fb96_logo-company-4-crypto-template.svg" clip-path="url(#clip0_2_480)">
<path id="Vector" d="M41.0485 12.0433C41.0485 10.1432 41.4728 8.44599 42.3213 6.95176C43.1884 5.43908 44.3598 4.26767 45.8355 3.43754C47.3298 2.58896 48.9993 2.16467 50.844 2.16467C53.0023 2.16467 54.8932 2.71809 56.5166 3.82493C58.1399 4.93178 59.2744 6.4629 59.9201 8.41832H55.4651C55.0223 7.49596 54.3951 6.80418 53.5834 6.343C52.7902 5.88181 51.8678 5.65122 50.8163 5.65122C49.691 5.65122 48.6857 5.91871 47.8002 6.45368C46.9332 6.97021 46.2506 7.7081 45.7525 8.66736C45.2729 9.62662 45.0331 10.752 45.0331 12.0433C45.0331 13.3161 45.2729 14.4414 45.7525 15.4191C46.2506 16.3784 46.9332 17.1255 47.8002 17.6605C48.6857 18.177 49.691 18.4353 50.8163 18.4353C51.8678 18.4353 52.7902 18.2047 53.5834 17.7435C54.3951 17.2639 55.0223 16.5629 55.4651 15.6405H59.9201C59.2744 17.6144 58.1399 19.1547 56.5166 20.2616C54.9116 21.35 53.0208 21.8942 50.844 21.8942C48.9993 21.8942 47.3298 21.4791 45.8355 20.649C44.3598 19.8004 43.1884 18.629 42.3213 17.1347C41.4728 15.6405 41.0485 13.9434 41.0485 12.0433Z" fill="white"/>
<path id="Vector_2" d="M70.036 21.9771C68.5602 21.9771 67.232 21.6542 66.0514 21.0086C64.8707 20.3445 63.9392 19.4129 63.2566 18.2138C62.5925 17.0147 62.2604 15.6312 62.2604 14.0632C62.2604 12.4951 62.6017 11.1116 63.2843 9.91255C63.9853 8.71347 64.9353 7.7911 66.1344 7.14545C67.3335 6.48134 68.6709 6.14929 70.1467 6.14929C71.6225 6.14929 72.9599 6.48134 74.159 7.14545C75.3581 7.7911 76.2989 8.71347 76.9814 9.91255C77.6824 11.1116 78.0329 12.4951 78.0329 14.0632C78.0329 15.6312 77.6732 17.0147 76.9538 18.2138C76.2528 19.4129 75.2935 20.3445 74.076 21.0086C72.8769 21.6542 71.5302 21.9771 70.036 21.9771ZM70.036 18.6012C70.737 18.6012 71.3919 18.4352 72.0006 18.1031C72.6279 17.7526 73.1259 17.2361 73.4949 16.5536C73.8638 15.871 74.0483 15.0409 74.0483 14.0632C74.0483 12.6058 73.6609 11.4898 72.8861 10.715C72.1298 9.92177 71.1982 9.52515 70.0913 9.52515C68.9845 9.52515 68.0529 9.92177 67.2966 10.715C66.5587 11.4898 66.1897 12.6058 66.1897 14.0632C66.1897 15.5205 66.5495 16.6458 67.2689 17.439C68.0068 18.2138 68.9292 18.6012 70.036 18.6012Z" fill="white"/>
<path id="Vector_3" d="M99.9123 6.17694C101.794 6.17694 103.307 6.75803 104.45 7.92021C105.612 9.06395 106.194 10.6688 106.194 12.735V21.728H102.32V13.2607C102.32 12.0616 102.015 11.1485 101.406 10.5213C100.798 9.87563 99.9676 9.5528 98.9161 9.5528C97.8646 9.5528 97.0252 9.87563 96.398 10.5213C95.7893 11.1485 95.4849 12.0616 95.4849 13.2607V21.728H91.611V13.2607C91.611 12.0616 91.3066 11.1485 90.6978 10.5213C90.0891 9.87563 89.2589 9.5528 88.2074 9.5528C87.1375 9.5528 86.2889 9.87563 85.6617 10.5213C85.0529 11.1485 84.7485 12.0616 84.7485 13.2607V21.728H80.8746V6.39831H84.7485V8.25227C85.2466 7.60661 85.8831 7.09931 86.6578 6.73036C87.4511 6.36141 88.3181 6.17694 89.2589 6.17694C90.458 6.17694 91.5279 6.4352 92.4688 6.95173C93.4096 7.44981 94.1382 8.16925 94.6548 9.11007C95.1528 8.2246 95.8723 7.51437 96.8131 6.9794C97.7724 6.44443 98.8054 6.17694 99.9123 6.17694Z" fill="white"/>
<path id="Vector_4" d="M113.744 8.61201C114.242 7.91101 114.924 7.32992 115.791 6.86874C116.677 6.38911 117.682 6.14929 118.807 6.14929C120.117 6.14929 121.298 6.47212 122.349 7.11778C123.419 7.76343 124.259 8.6858 124.867 9.88488C125.495 11.0655 125.808 12.4398 125.808 14.0078C125.808 15.5758 125.495 16.9686 124.867 18.1861C124.259 19.3852 123.419 20.3168 122.349 20.9809C121.298 21.645 120.117 21.9771 118.807 21.9771C117.682 21.9771 116.686 21.7465 115.819 21.2853C114.97 20.8241 114.279 20.243 113.744 19.542V29.0332H109.87V6.39833H113.744V8.61201ZM121.851 14.0078C121.851 13.0855 121.658 12.2922 121.27 11.6281C120.901 10.9456 120.403 10.4291 119.776 10.0786C119.167 9.72807 118.503 9.55282 117.784 9.55282C117.083 9.55282 116.419 9.7373 115.791 10.1063C115.183 10.4567 114.684 10.9732 114.297 11.6558C113.928 12.3383 113.744 13.1408 113.744 14.0632C113.744 14.9855 113.928 15.788 114.297 16.4705C114.684 17.1531 115.183 17.6788 115.791 18.0478C116.419 18.3983 117.083 18.5735 117.784 18.5735C118.503 18.5735 119.167 18.3891 119.776 18.0201C120.403 17.6512 120.901 17.1254 121.27 16.4429C121.658 15.7603 121.851 14.9486 121.851 14.0078Z" fill="white"/>
<path id="Vector_5" d="M127.627 14.0078C127.627 12.4582 127.932 11.0839 128.54 9.88488C129.167 8.6858 130.007 7.76343 131.058 7.11778C132.128 6.47212 133.318 6.14929 134.628 6.14929C135.772 6.14929 136.768 6.37988 137.616 6.84106C138.483 7.30225 139.175 7.88334 139.692 8.58434V6.39833H143.593V21.728H139.692V19.4867C139.194 20.2061 138.502 20.8057 137.616 21.2853C136.749 21.7465 135.744 21.9771 134.6 21.9771C133.309 21.9771 132.128 21.645 131.058 20.9809C130.007 20.3168 129.167 19.3852 128.54 18.1861C127.932 16.9686 127.627 15.5758 127.627 14.0078ZM139.692 14.0632C139.692 13.1223 139.507 12.3199 139.138 11.6558C138.769 10.9732 138.271 10.4567 137.644 10.1063C137.017 9.7373 136.344 9.55282 135.624 9.55282C134.905 9.55282 134.241 9.72807 133.632 10.0786C133.023 10.4291 132.525 10.9456 132.138 11.6281C131.769 12.2922 131.584 13.0855 131.584 14.0078C131.584 14.9302 131.769 15.7419 132.138 16.4429C132.525 17.1254 133.023 17.6512 133.632 18.0201C134.259 18.3891 134.923 18.5735 135.624 18.5735C136.344 18.5735 137.017 18.3983 137.644 18.0478C138.271 17.6788 138.769 17.1623 139.138 16.4982C139.507 15.8157 139.692 15.004 139.692 14.0632Z" fill="white"/>
<path id="Vector_6" d="M155.872 6.17694C157.698 6.17694 159.174 6.75803 160.299 7.92021C161.425 9.06395 161.987 10.6688 161.987 12.735V21.728H158.113V13.2607C158.113 12.0432 157.809 11.1116 157.2 10.466C156.591 9.80184 155.761 9.46979 154.71 9.46979C153.64 9.46979 152.791 9.80184 152.164 10.466C151.555 11.1116 151.251 12.0432 151.251 13.2607V21.728H147.377V6.39831H151.251V8.30761C151.767 7.6435 152.422 7.12698 153.215 6.75803C154.027 6.37064 154.913 6.17694 155.872 6.17694Z" fill="white"/>
<path id="Vector_7" d="M180.337 6.39832L170.846 28.9778H166.723L170.043 21.3406L163.9 6.39832H168.245L172.201 17.107L176.214 6.39832H180.337Z" fill="white"/>
<path id="Vector_8" d="M12.0032 28.8288C6.08841 28.8288 1.3125 24.0162 1.3125 18.1381C1.3125 12.2601 6.08841 7.44751 12.0032 7.44751C17.8812 7.44751 22.6939 12.2234 22.6939 18.1381C22.6571 24.0162 17.8812 28.8288 12.0032 28.8288Z" fill="#0328EE"/>
<path id="Vector_9" d="M27.8052 0.614868H13.7248C12.7739 0.614868 12.0031 1.38571 12.0031 2.3366V16.4171C12.0031 17.368 12.7739 18.1388 13.7248 18.1388H27.8052C28.7561 18.1388 29.527 17.368 29.527 16.4171V2.3366C29.527 1.38571 28.7561 0.614868 27.8052 0.614868Z" fill="white"/>
</g>
<defs>
<clipPath id="clip0_2_480">
<rect width="180" height="29" fill="white" transform="translate(0.5 0.53125)"/>
</clipPath>
</defs>
</svg>
