<svg width="179" height="32" viewBox="0 0 179 32" fill="none" xmlns="http://www.w3.org/2000/svg">
<g id="60e4a1e73807566a10e7fb98_logo-company-5-crypto-template.svg" clip-path="url(#clip0_2_492)">
<path id="Vector" d="M38.9915 13.4083C38.9915 11.5083 39.4157 9.8111 40.2643 8.31686C41.1313 6.80418 42.3028 5.63278 43.7785 4.80265C45.2728 3.95407 46.9423 3.52979 48.787 3.52979C50.9453 3.52979 52.8362 4.08321 54.4595 5.19005C56.0829 6.29689 57.2174 7.82802 57.8631 9.78343H53.4081C52.9653 8.86107 52.3381 8.16929 51.5264 7.70811C50.7332 7.24693 49.8108 7.01632 48.7593 7.01632C47.634 7.01632 46.6287 7.28382 45.7432 7.81879C44.8762 8.33532 44.1936 9.07321 43.6955 10.0325C43.2159 10.9917 42.9761 12.117 42.9761 13.4083C42.9761 14.6812 43.2159 15.8065 43.6955 16.7842C44.1936 17.7435 44.8762 18.4906 45.7432 19.0256C46.6287 19.5421 47.634 19.8003 48.7593 19.8003C49.8108 19.8003 50.7332 19.5698 51.5264 19.1086C52.3381 18.6289 52.9653 17.9279 53.4081 17.0056H57.8631C57.2174 18.9794 56.0829 20.5198 54.4595 21.6266C52.8546 22.715 50.9638 23.2592 48.787 23.2592C46.9423 23.2592 45.2728 22.8442 43.7785 22.014C42.3028 21.1654 41.1313 19.994 40.2643 18.4998C39.4157 17.0056 38.9915 15.3084 38.9915 13.4083Z" fill="white"/>
<path id="Vector_2" d="M67.979 23.3422C66.5032 23.3422 65.175 23.0194 63.9944 22.3737C62.8137 21.7096 61.8821 20.7781 61.1996 19.579C60.5355 18.3799 60.2034 16.9963 60.2034 15.4283C60.2034 13.8603 60.5447 12.4767 61.2273 11.2777C61.9283 10.0786 62.8783 9.15622 64.0774 8.51056C65.2765 7.84645 66.6139 7.5144 68.0897 7.5144C69.5655 7.5144 70.9029 7.84645 72.102 8.51056C73.3011 9.15622 74.2419 10.0786 74.9244 11.2777C75.6254 12.4767 75.9759 13.8603 75.9759 15.4283C75.9759 16.9963 75.6162 18.3799 74.8967 19.579C74.1957 20.7781 73.2365 21.7096 72.019 22.3737C70.8199 23.0194 69.4732 23.3422 67.979 23.3422ZM67.979 19.9664C68.68 19.9664 69.3349 19.8003 69.9436 19.4683C70.5708 19.1178 71.0689 18.6013 71.4379 17.9187C71.8068 17.2362 71.9913 16.406 71.9913 15.4283C71.9913 13.971 71.6039 12.8549 70.8291 12.0801C70.0728 11.2869 69.1412 10.8903 68.0343 10.8903C66.9275 10.8903 65.9959 11.2869 65.2396 12.0801C64.5017 12.8549 64.1327 13.971 64.1327 15.4283C64.1327 16.8857 64.4924 18.011 65.2119 18.8042C65.9498 19.579 66.8722 19.9664 67.979 19.9664Z" fill="white"/>
<path id="Vector_3" d="M97.8552 7.54205C99.7369 7.54205 101.25 8.12314 102.393 9.28533C103.555 10.4291 104.137 12.034 104.137 14.1001V23.0932H100.263V14.6259C100.263 13.4268 99.9582 12.5136 99.3495 11.8864C98.7407 11.2408 97.9106 10.9179 96.8591 10.9179C95.8076 10.9179 94.9682 11.2408 94.341 11.8864C93.7323 12.5136 93.4279 13.4268 93.4279 14.6259V23.0932H89.5539V14.6259C89.5539 13.4268 89.2496 12.5136 88.6408 11.8864C88.032 11.2408 87.2019 10.9179 86.1504 10.9179C85.0805 10.9179 84.2319 11.2408 83.6047 11.8864C82.9959 12.5136 82.6915 13.4268 82.6915 14.6259V23.0932H78.8176V7.76342H82.6915V9.61738C83.1896 8.97172 83.8261 8.46442 84.6008 8.09547C85.3941 7.72653 86.2611 7.54205 87.2019 7.54205C88.401 7.54205 89.4709 7.80032 90.4118 8.31684C91.3526 8.81492 92.0812 9.53437 92.5978 10.4752C93.0958 9.58971 93.8153 8.87949 94.7561 8.34451C95.7154 7.80954 96.7484 7.54205 97.8552 7.54205Z" fill="white"/>
<path id="Vector_4" d="M111.687 9.97712C112.185 9.27612 112.867 8.69503 113.734 8.23385C114.62 7.75422 115.625 7.5144 116.75 7.5144C118.06 7.5144 119.241 7.83723 120.292 8.48289C121.362 9.12854 122.202 10.0509 122.81 11.25C123.438 12.4306 123.751 13.805 123.751 15.373C123.751 16.941 123.438 18.3338 122.81 19.5513C122.202 20.7504 121.362 21.682 120.292 22.3461C119.241 23.0102 118.06 23.3422 116.75 23.3422C115.625 23.3422 114.629 23.1116 113.762 22.6505C112.913 22.1893 112.222 21.6082 111.687 20.9072V30.3983H107.813V7.76344H111.687V9.97712ZM119.794 15.373C119.794 14.4506 119.601 13.6574 119.213 12.9933C118.844 12.3107 118.346 11.7942 117.719 11.4437C117.11 11.0932 116.446 10.9179 115.727 10.9179C115.026 10.9179 114.362 11.1024 113.734 11.4714C113.126 11.8219 112.627 12.3384 112.24 13.0209C111.871 13.7035 111.687 14.506 111.687 15.4283C111.687 16.3507 111.871 17.1531 112.24 17.8357C112.627 18.5183 113.126 19.044 113.734 19.413C114.362 19.7634 115.026 19.9387 115.727 19.9387C116.446 19.9387 117.11 19.7542 117.719 19.3853C118.346 19.0163 118.844 18.4906 119.213 17.808C119.601 17.1255 119.794 16.3138 119.794 15.373Z" fill="white"/>
<path id="Vector_5" d="M125.57 15.373C125.57 13.8234 125.875 12.4491 126.483 11.25C127.11 10.0509 127.95 9.12854 129.001 8.48289C130.071 7.83723 131.261 7.5144 132.571 7.5144C133.715 7.5144 134.711 7.74499 135.559 8.20618C136.426 8.66736 137.118 9.24845 137.635 9.94945V7.76344H141.536V23.0932H137.635V20.8518C137.137 21.5713 136.445 22.1708 135.559 22.6505C134.692 23.1116 133.687 23.3422 132.543 23.3422C131.252 23.3422 130.071 23.0102 129.001 22.3461C127.95 21.682 127.11 20.7504 126.483 19.5513C125.875 18.3338 125.57 16.941 125.57 15.373ZM137.635 15.4283C137.635 14.4875 137.45 13.685 137.081 13.0209C136.712 12.3384 136.214 11.8219 135.587 11.4714C134.96 11.1024 134.287 10.9179 133.567 10.9179C132.848 10.9179 132.184 11.0932 131.575 11.4437C130.966 11.7942 130.468 12.3107 130.081 12.9933C129.712 13.6574 129.527 14.4506 129.527 15.373C129.527 16.2953 129.712 17.107 130.081 17.808C130.468 18.4906 130.966 19.0163 131.575 19.3853C132.202 19.7542 132.866 19.9387 133.567 19.9387C134.287 19.9387 134.96 19.7634 135.587 19.413C136.214 19.044 136.712 18.5275 137.081 17.8634C137.45 17.1808 137.635 16.3691 137.635 15.4283Z" fill="white"/>
<path id="Vector_6" d="M153.815 7.54205C155.641 7.54205 157.117 8.12314 158.242 9.28533C159.368 10.4291 159.93 12.034 159.93 14.1001V23.0932H156.056V14.6259C156.056 13.4083 155.752 12.4767 155.143 11.8311C154.534 11.167 153.704 10.8349 152.653 10.8349C151.583 10.8349 150.734 11.167 150.107 11.8311C149.498 12.4767 149.194 13.4083 149.194 14.6259V23.0932H145.32V7.76342H149.194V9.67272C149.71 9.00862 150.365 8.49209 151.158 8.12314C151.97 7.73575 152.856 7.54205 153.815 7.54205Z" fill="white"/>
<path id="Vector_7" d="M178.28 7.76343L168.789 30.343H164.666L167.986 22.7058L161.843 7.76343H166.187L170.144 18.4721L174.157 7.76343H178.28Z" fill="white"/>
<path id="Vector_8" d="M3.59822 31.424H0.83667V12.0858H11.1956V23.8267C11.1956 28.022 7.79597 31.424 3.59822 31.424Z" fill="#0328EE"/>
<path id="Vector_9" d="M25.0081 12.0858C25.0081 5.41224 19.5983 0 12.9223 0C12.336 0 11.7596 0.0443424 11.1954 0.125637V12.0858H25.0081Z" fill="#0328EE"/>
<path id="Vector_10" d="M21.0948 24.826C23.744 23.745 25.0153 20.7212 23.9344 18.072C22.8534 15.4228 19.8295 14.1515 17.1803 15.2324C14.5311 16.3134 13.2598 19.3373 14.3408 21.9865C15.4218 24.6357 18.4457 25.907 21.0948 24.826Z" fill="white"/>
</g>
<defs>
<clipPath id="clip0_2_492">
<rect width="179" height="32" fill="white"/>
</clipPath>
</defs>
</svg>
