<svg width="184" height="27" viewBox="0 0 184 27" fill="none" xmlns="http://www.w3.org/2000/svg">
<g id="60e4a1e7380756458de7fb94_logo-company-1-crypto-template.svg" clip-path="url(#clip0_2_440)">
<path id="Vector" d="M64.4803 20.7079C63.0128 20.7079 61.7193 20.3959 60.5993 19.7719C59.4795 19.1479 58.5914 18.2779 57.9348 17.1623C57.2977 16.0466 56.9791 14.7701 56.9791 13.333C56.9791 11.8958 57.2977 10.6193 57.9348 9.50365C58.5914 8.38796 59.4795 7.51809 60.5993 6.89405C61.7193 6.27003 63.0128 5.95801 64.4803 5.95801C66.3146 5.95801 67.8592 6.43076 69.1142 7.37626C70.3693 8.30286 71.1705 9.58875 71.5181 11.2339H67.6083C67.4151 10.5531 67.029 10.0236 66.4497 9.64548C65.8898 9.24836 65.2237 9.04981 64.4513 9.04981C63.428 9.04981 62.5592 9.42801 61.8448 10.1844C61.1304 10.9408 60.7732 11.9903 60.7732 13.333C60.7732 14.6756 61.1304 15.7251 61.8448 16.4815C62.5592 17.2379 63.428 17.6161 64.4513 17.6161C65.2237 17.6161 65.8898 17.427 66.4497 17.0488C67.029 16.6706 67.4151 16.1317 67.6083 15.432H71.5181C71.1705 17.0204 70.3693 18.2968 69.1142 19.2613C67.8592 20.2257 66.3146 20.7079 64.4803 20.7079Z" fill="white"/>
<path id="Vector_2" d="M81.1223 20.7079C79.7321 20.7079 78.4771 20.3959 77.3571 19.7719C76.2566 19.1479 75.3781 18.2874 74.7216 17.1906C74.0844 16.0749 73.7659 14.789 73.7659 13.333C73.7659 11.8769 74.0941 10.6004 74.7506 9.50365C75.407 8.38796 76.2856 7.51809 77.3862 6.89405C78.506 6.27003 79.761 5.95801 81.1512 5.95801C82.5221 5.95801 83.7578 6.27003 84.8584 6.89405C85.9782 7.51809 86.8568 8.38796 87.494 9.50365C88.1504 10.6004 88.4787 11.8769 88.4787 13.333C88.4787 14.789 88.1504 16.0749 87.494 17.1906C86.8568 18.2874 85.9782 19.1479 84.8584 19.7719C83.7386 20.3959 82.4931 20.7079 81.1223 20.7079ZM81.1223 17.5593C82.0877 17.5593 82.9276 17.2095 83.642 16.5098C84.3564 15.7913 84.7136 14.7323 84.7136 13.333C84.7136 11.9336 84.3564 10.8841 83.642 10.1844C82.9276 9.46583 82.0973 9.10654 81.1512 9.10654C80.1665 9.10654 79.317 9.46583 78.6026 10.1844C77.9075 10.8841 77.5599 11.9336 77.5599 13.333C77.5599 14.7323 77.9075 15.7913 78.6026 16.5098C79.317 17.2095 80.1569 17.5593 81.1223 17.5593Z" fill="white"/>
<path id="Vector_3" d="M91.214 20.3675V6.29838H94.4864L94.8049 8.19886C95.269 7.51809 95.8769 6.97915 96.6303 6.58204C97.402 6.16602 98.2909 5.95801 99.2942 5.95801C101.515 5.95801 103.089 6.7995 104.015 8.48251C104.537 7.70719 105.232 7.09261 106.1 6.63877C106.989 6.18492 107.954 5.95801 108.997 5.95801C110.87 5.95801 112.308 6.5064 113.312 7.60319C114.316 8.69998 114.818 10.3073 114.818 12.4252V20.3675H111.111V12.7657C111.111 11.5554 110.87 10.6288 110.387 9.9859C109.924 9.34292 109.2 9.02144 108.215 9.02144C107.211 9.02144 106.4 9.38074 105.782 10.0993C105.183 10.8179 104.885 11.8202 104.885 13.106V20.3675H101.177V12.7657C101.177 11.5554 100.936 10.6288 100.453 9.9859C99.9707 9.34292 99.2273 9.02144 98.2231 9.02144C97.2381 9.02144 96.4371 9.38074 95.8192 10.0993C95.2205 10.8179 94.9212 11.8202 94.9212 13.106V20.3675H91.214Z" fill="white"/>
<path id="Vector_4" d="M117.758 26.6079V6.29838H121.06L121.466 8.31232C121.929 7.68828 122.538 7.13989 123.29 6.66714C124.063 6.19438 125.057 5.95801 126.273 5.95801C127.625 5.95801 128.832 6.27948 129.894 6.92242C130.956 7.56536 131.795 8.44468 132.413 9.56039C133.031 10.6761 133.341 11.9431 133.341 13.3613C133.341 14.7796 133.031 16.0466 132.413 17.1623C131.795 18.259 130.956 19.1289 129.894 19.7719C128.832 20.3959 127.625 20.7079 126.273 20.7079C125.192 20.7079 124.246 20.5094 123.435 20.1123C122.625 19.7151 121.967 19.1573 121.466 18.4387V26.6079H117.758ZM125.492 17.531C126.669 17.531 127.645 17.1433 128.417 16.368C129.189 15.5928 129.575 14.5905 129.575 13.3613C129.575 12.1322 129.189 11.1205 128.417 10.3262C127.645 9.53202 126.669 9.1349 125.492 9.1349C124.294 9.1349 123.309 9.53202 122.538 10.3262C121.784 11.1016 121.408 12.1038 121.408 13.333C121.408 14.5621 121.784 15.5738 122.538 16.368C123.309 17.1433 124.294 17.531 125.492 17.531Z" fill="white"/>
<path id="Vector_5" d="M141.026 20.7079C139.79 20.7079 138.775 20.5188 137.985 20.1406C137.193 19.7435 136.604 19.2234 136.218 18.5805C135.831 17.9376 135.638 17.2284 135.638 16.4531C135.638 15.1483 136.159 14.0893 137.202 13.2762C138.244 12.4631 139.809 12.0565 141.894 12.0565H145.543V11.7162C145.543 10.7517 145.263 10.0426 144.704 9.58875C144.143 9.1349 143.449 8.90799 142.618 8.90799C141.865 8.90799 141.209 9.08763 140.648 9.44692C140.089 9.78731 139.741 10.2979 139.606 10.9787H135.986C136.082 9.95748 136.43 9.06872 137.029 8.31232C137.647 7.55591 138.438 6.97915 139.403 6.58204C140.369 6.16602 141.45 5.95801 142.647 5.95801C144.694 5.95801 146.306 6.45913 147.484 7.46136C148.662 8.46359 149.251 9.8819 149.251 11.7162V20.3675H146.093L145.746 18.0983C145.322 18.8547 144.723 19.4788 143.95 19.9704C143.198 20.4621 142.222 20.7079 141.026 20.7079ZM141.865 17.8713C142.927 17.8713 143.748 17.531 144.327 16.8503C144.925 16.1695 145.302 15.328 145.456 14.3257H142.3C141.315 14.3257 140.61 14.5054 140.185 14.8647C139.76 15.2051 139.548 15.6305 139.548 16.1411C139.548 16.6895 139.76 17.115 140.185 17.4175C140.61 17.7201 141.17 17.8713 141.865 17.8713Z" fill="white"/>
<path id="Vector_6" d="M152.209 20.3675V6.29838H155.482L155.771 8.68106C156.215 7.84901 156.852 7.18716 157.683 6.6955C158.532 6.20383 159.527 5.95801 160.666 5.95801C162.442 5.95801 163.823 6.5064 164.807 7.60319C165.792 8.69998 166.285 10.3073 166.285 12.4252V20.3675H162.577V12.7657C162.577 11.5554 162.327 10.6288 161.824 9.9859C161.322 9.34292 160.541 9.02144 159.479 9.02144C158.436 9.02144 157.576 9.38074 156.901 10.0993C156.244 10.8179 155.916 11.8202 155.916 13.106V20.3675H152.209Z" fill="white"/>
<path id="Vector_7" d="M170.565 26.6078L173.896 19.4314H173.027L167.437 6.29834H171.463L175.488 16.1978L179.688 6.29834H183.627L174.504 26.6078H170.565Z" fill="white"/>
<path id="Vector_8" d="M14.7259 24.1624C13.7573 25.111 12.1865 25.1097 11.2196 24.1594L1.96361 15.0631C0.999018 14.1151 1.00036 12.5812 1.96661 11.6349L11.2226 2.56974C12.1888 1.62341 13.755 1.62209 14.7229 2.5668L24.0107 11.632C24.981 12.579 24.9823 14.1174 24.0137 15.066L14.7259 24.1624Z" fill="#0328EE"/>
<path id="Vector_9" d="M27.5205 24.1585C26.5537 25.1087 24.9828 25.1101 24.0142 24.1614L14.7264 15.0651C13.7578 14.1165 13.7592 12.5781 14.7294 11.631L24.0172 2.56588C24.9851 1.62118 26.5513 1.62249 27.5175 2.56882L36.7735 11.634C37.7398 12.5803 37.7411 14.1142 36.7765 15.0621L27.5205 24.1585Z" fill="white"/>
<path id="Vector_10" d="M37.0045 24.1604C36.0368 25.1096 34.4662 25.1096 33.4984 24.1604L24.2249 15.0638C23.2582 14.1155 23.2595 12.5791 24.2279 11.6324L33.5014 2.56698C34.4685 1.62163 36.0345 1.62163 37.0016 2.56698L46.275 11.6324C47.2434 12.5791 47.2448 14.1155 46.278 15.0638L37.0045 24.1604Z" fill="#0328EE"/>
</g>
<defs>
<clipPath id="clip0_2_440">
<rect width="184" height="26" fill="white" transform="translate(0.217941 0.78125)"/>
</clipPath>
</defs>
</svg>
