<svg width="175" height="30" viewBox="0 0 175 30" fill="none" xmlns="http://www.w3.org/2000/svg">
<g id="60e4a1e73807569833e7fb95_logo-company-2-crypto-template.svg" clip-path="url(#clip0_2_453)">
<path id="Vector" d="M60.3029 15.896C59.0399 17.9449 57.2436 19.1237 54.9141 19.1237C51.5462 19.1237 49.0763 16.4012 49.0763 12.8929C49.0763 9.38458 51.4339 6.69021 54.9703 6.69021C57.2156 6.69021 59.2363 7.95319 60.2467 9.86171L63.5024 7.2796C61.8465 4.33263 58.8434 2.56445 55.0264 2.56445C48.9079 2.56445 44.6138 7.1112 44.6138 12.8929C44.6138 18.6746 48.9921 23.2494 54.9703 23.2494C58.7312 23.2494 61.8746 21.2567 63.5866 18.422L60.3029 15.896Z" fill="white"/>
<path id="Vector_2" d="M72.5021 8.17773C68.0115 8.17773 64.7838 11.4335 64.7838 15.6996C64.7838 19.9376 68.0115 23.2494 72.5021 23.2494C76.9927 23.2494 80.2203 19.9376 80.2203 15.6996C80.2203 11.4335 76.9927 8.17773 72.5021 8.17773ZM72.5021 11.9667C74.4387 11.9667 75.8981 13.4543 75.8981 15.6996C75.8981 17.9449 74.4387 19.4605 72.5021 19.4605C70.5655 19.4605 69.1061 17.9449 69.1061 15.6996C69.1061 13.4543 70.5655 11.9667 72.5021 11.9667Z" fill="white"/>
<path id="Vector_3" d="M83.0088 8.51452V22.9126H87.2749V15.4189C87.2749 13.5385 88.2572 11.9387 90.0534 11.9387C91.6252 11.9387 92.6355 12.921 92.6355 14.8014V22.9126H96.9016V15.4189C96.9016 13.5385 97.884 11.9387 99.6802 11.9387C101.252 11.9387 102.234 12.921 102.234 14.8014V22.9126H106.5V14.1559C106.5 10.423 104.395 8.17773 100.943 8.17773C98.5014 8.17773 97.1262 9.24425 96.0877 10.7037C95.1054 9.10392 93.5337 8.17773 91.3164 8.17773C89.436 8.17773 88.0327 8.90745 87.1065 10.3669V8.51452H83.0088Z" fill="white"/>
<path id="Vector_4" d="M117.693 11.9387C119.517 11.9387 121.033 13.4262 121.033 15.7557C121.033 18.001 119.517 19.4885 117.693 19.4885C115.785 19.4885 114.297 18.0291 114.297 15.7557C114.297 13.3981 115.785 11.9387 117.693 11.9387ZM114.101 8.51452H110.143V28.5259H114.409V21.3409C115.307 22.6881 117.02 23.2494 118.563 23.2494C122.492 23.2494 125.327 19.9937 125.327 15.6996C125.327 11.2651 122.268 8.17773 118.591 8.17773C117.188 8.17773 115.223 8.76712 114.101 10.5072V8.51452Z" fill="white"/>
<path id="Vector_5" d="M135.589 13.9594L131.66 14.7172C128.628 15.3628 126.973 16.8222 126.973 18.9553C126.973 21.4532 128.937 23.2494 131.744 23.2494C133.652 23.2494 135.056 22.4074 135.729 21.1444V22.9126H139.687V13.8472C139.687 10.3388 137.301 8.17773 133.287 8.17773C130.593 8.17773 128.432 9.30038 127.113 10.9002L129.33 13.5946C130.2 12.6123 131.435 11.8545 133.035 11.8545C134.494 11.8545 135.589 12.4158 135.589 13.8472V13.9594ZM132.698 20.0779C131.688 20.0779 131.042 19.5166 131.042 18.7027C131.042 17.9168 131.604 17.4116 132.754 17.2151L135.617 16.6538V17.0748C135.617 18.7869 134.466 20.0779 132.698 20.0779Z" fill="white"/>
<path id="Vector_6" d="M143.28 8.51452V22.9126H147.546V15.4189C147.546 13.5385 148.529 11.9387 150.381 11.9387C151.953 11.9387 152.963 12.921 152.963 14.8014V22.9126H157.229V14.1559C157.229 10.423 155.096 8.17773 151.644 8.17773C149.707 8.17773 148.304 8.90745 147.378 10.3669V8.51452H143.28Z" fill="white"/>
<path id="Vector_7" d="M164.195 22.3794L164.027 22.8565C163.409 24.9053 162.371 25.2702 161.248 25.2702C160.771 25.2702 160.041 25.2141 159.283 24.7931V28.3294C159.929 28.6382 160.855 28.8627 161.865 28.8627C164.588 28.8627 166.328 27.5716 167.759 24.0914L174.046 8.51453H169.696L166.328 17.9449L162.988 8.51453H158.526L164.195 22.3794Z" fill="white"/>
<path id="Vector_8" d="M19.2098 0.614868H14.7308C14.263 0.614868 13.8838 0.994081 13.8838 1.46186V25.309C13.8838 25.7768 14.263 26.156 14.7308 26.156H19.2098C19.6776 26.156 20.0568 25.7768 20.0568 25.309V1.46186C20.0568 0.994081 19.6776 0.614868 19.2098 0.614868Z" fill="white"/>
<path id="Vector_9" d="M28.339 26.1558C31.237 26.1558 33.5863 23.8065 33.5863 20.9086C33.5863 18.0106 31.237 15.6613 28.339 15.6613C25.4411 15.6613 23.0918 18.0106 23.0918 20.9086C23.0918 23.8065 25.4411 26.1558 28.339 26.1558Z" fill="#0328EE"/>
<path id="Vector_10" d="M28.339 11.1094C31.237 11.1094 33.5863 8.76009 33.5863 5.86211C33.5863 2.96414 31.237 0.614868 28.339 0.614868C25.4411 0.614868 23.0918 2.96414 23.0918 5.86211C23.0918 8.76009 25.4411 11.1094 28.339 11.1094Z" fill="#0328EE"/>
<path id="Vector_11" d="M5.60174 26.1558C8.49971 26.1558 10.849 23.8065 10.849 20.9086C10.849 18.0106 8.49971 15.6613 5.60174 15.6613C2.70376 15.6613 0.354492 18.0106 0.354492 20.9086C0.354492 23.8065 2.70376 26.1558 5.60174 26.1558Z" fill="#0328EE"/>
</g>
<defs>
<clipPath id="clip0_2_453">
<rect width="175" height="29" fill="white" transform="translate(0 0.53125)"/>
</clipPath>
</defs>
</svg>
