<svg width="136" height="48" viewBox="0 0 136 48" fill="none" xmlns="http://www.w3.org/2000/svg">
<path d="M47 24.1763C47 22.5928 47.3426 21.1844 48.0277 19.9511C48.7129 18.7026 49.6645 17.7357 50.8826 17.0505C52.1159 16.3502 53.5091 16 55.0621 16C56.9654 16 58.5946 16.5024 59.9497 17.5073C61.3048 18.5122 62.2107 19.8826 62.6675 21.6183H58.3738C58.054 20.9484 57.5973 20.4383 57.0034 20.0881C56.4249 19.7379 55.7625 19.5628 55.0164 19.5628C53.8136 19.5628 52.8391 19.9815 52.0931 20.819C51.347 21.6564 50.974 22.7755 50.974 24.1763C50.974 25.5771 51.347 26.6962 52.0931 27.5336C52.8391 28.3711 53.8136 28.7898 55.0164 28.7898C55.7625 28.7898 56.4249 28.6147 57.0034 28.2645C57.5973 27.9143 58.054 27.4042 58.3738 26.7343H62.6675C62.2107 28.47 61.3048 29.8404 59.9497 30.8453C58.5946 31.835 56.9654 32.3298 55.0621 32.3298C53.5091 32.3298 52.1159 31.9872 50.8826 31.3021C49.6645 30.6017 48.7129 29.6348 48.0277 28.4015C47.3426 27.1682 47 25.7598 47 24.1763ZM68.9646 21.5955C69.4214 20.8951 69.9924 20.347 70.6776 19.9511C71.3627 19.54 72.124 19.3344 72.9615 19.3344V23.4683H71.888C70.9136 23.4683 70.1827 23.6815 69.6955 24.1078C69.2083 24.5189 68.9646 25.2497 68.9646 26.3003V32.2156H65.0592V19.4715H68.9646V21.5955ZM87.8464 19.4715L79.8528 38.268H75.6504L78.5738 31.7817L73.3893 19.4715H77.7516L80.6978 27.4423L83.6212 19.4715H87.8464ZM93.1644 21.2758C93.5444 20.6819 94.0704 20.2023 94.7404 19.8369C95.4104 19.4715 96.1944 19.2888 97.0924 19.2888C98.1434 19.2888 99.0944 19.5552 99.9474 20.0881C100.8 20.621 101.47 21.3823 101.957 22.372C102.459 23.3617 102.71 24.5113 102.71 25.8207C102.71 27.1301 102.459 28.2873 101.957 29.2922C101.47 30.2819 100.8 31.0508 99.9474 31.599C99.0944 32.1319 98.1434 32.3983 97.0924 32.3983C96.2094 32.3983 95.4254 32.2156 94.7404 31.8502C94.0704 31.4848 93.5444 31.0128 93.1644 30.4342V38.2908H89.2587V19.4715H93.1644V21.2758ZM98.7364 25.8207C98.7364 24.8462 98.4624 24.0849 97.9144 23.5368C97.3814 22.9735 96.7194 22.6918 95.9274 22.6918C95.1514 22.6918 94.4884 22.9735 93.9404 23.5368C93.4074 24.1002 93.1414 24.8691 93.1414 25.8436C93.1414 26.818 93.4074 27.5869 93.9404 28.1503C94.4884 28.7136 95.1514 28.9953 95.9274 28.9953C96.7044 28.9953 97.3664 28.7136 97.9144 28.1503C98.4624 27.5717 98.7364 26.7952 98.7364 25.8207ZM111.862 28.904V32.2156H109.875C108.459 32.2156 107.355 31.873 106.564 31.1879C105.772 30.4875 105.376 29.3531 105.376 27.7849V22.7146H103.823V19.4715H105.376V16.3654H109.281V19.4715H111.839V22.7146H109.281V27.8305C109.281 28.2112 109.373 28.4853 109.556 28.6527C109.738 28.8202 110.043 28.904 110.469 28.904H111.862ZM119.839 32.3983C118.59 32.3983 117.464 32.1319 116.459 31.599C115.469 31.0661 114.685 30.3048 114.106 29.3151C113.543 28.3254 113.261 27.1682 113.261 25.8436C113.261 24.5341 113.55 23.3846 114.129 22.3949C114.708 21.39 115.499 20.621 116.504 20.0881C117.509 19.5552 118.636 19.2888 119.884 19.2888C121.133 19.2888 122.26 19.5552 123.265 20.0881C124.27 20.621 125.061 21.39 125.64 22.3949C126.218 23.3846 126.508 24.5341 126.508 25.8436C126.508 27.153 126.211 28.3102 125.617 29.3151C125.038 30.3048 124.239 31.0661 123.219 31.599C122.214 32.1319 121.087 32.3983 119.839 32.3983ZM119.839 29.0182C120.585 29.0182 121.217 28.7441 121.734 28.196C122.267 27.6478 122.534 26.8637 122.534 25.8436C122.534 24.8234 122.275 24.0393 121.757 23.4911C121.255 22.943 120.631 22.6689 119.884 22.6689C119.123 22.6689 118.491 22.943 117.989 23.4911C117.486 24.024 117.235 24.8082 117.235 25.8436C117.235 26.8637 117.479 27.6478 117.966 28.196C118.468 28.7441 119.093 29.0182 119.839 29.0182Z" fill="white"/>
<g clip-path="url(#clip0_245_1931)">
<g clip-path="url(#clip1_245_1931)">
<path d="M24.1288 28.2173C24.0603 28.0419 17.9865 16.5087 17.8951 16.3333C17.5755 15.5878 17.0046 14.9519 16.2511 14.5134C14.3559 13.461 11.9355 14.0749 10.8395 15.8948C10.086 17.1446 10.1317 18.6136 10.8624 19.7757C10.9309 19.9292 16.7306 30.98 16.8448 31.1554C16.9133 31.3308 17.0046 31.4843 17.096 31.6597C17.4156 32.4052 17.9865 33.0411 18.74 33.4796C20.6352 34.5321 23.0556 33.9401 24.1516 32.1202C24.9279 30.8704 24.8594 29.3794 24.1288 28.2173Z" fill="white" fill-opacity="0.4"/>
<path d="M17.4462 20.4099C18.1146 19.7293 18.5294 18.8072 18.5294 17.7974C18.5294 15.7117 16.7548 13.9993 14.5424 13.9993C13.1826 13.9993 11.9842 14.636 11.2698 15.6239C11.1315 15.7556 1.19842 27.4351 1.08319 27.5888C0.414838 28.2694 0 29.1914 0 30.2013C0 32.3089 1.79763 33.9993 3.98705 33.9993C5.3468 33.9993 6.54522 33.3627 7.25966 32.3747C7.39794 32.2211 17.354 20.5635 17.4462 20.4099Z" fill="white"/>
<path d="M33.9182 20.4099C34.5857 19.7293 35 18.8072 35 17.7974C35 15.6898 33.2046 13.9993 31.0179 13.9993C29.6598 13.9993 28.4629 14.636 27.7494 15.6239C27.6112 15.7557 17.6675 27.4351 17.5524 27.5888C16.8849 28.2694 16.4706 29.1914 16.4706 30.2013C16.4706 32.3089 18.266 33.9993 20.4527 33.9993C21.8107 33.9993 23.0077 33.3627 23.7212 32.3748C23.8823 32.2211 33.8031 20.5636 33.9182 20.4099Z" fill="white"/>
</g>
</g>
<defs>
<clipPath id="clip0_245_1931">
<rect width="35" height="20" fill="white" transform="translate(0 14)"/>
</clipPath>
<clipPath id="clip1_245_1931">
<rect width="35" height="20" fill="white" transform="translate(0 14)"/>
</clipPath>
</defs>
</svg>
