<svg width="29" height="27" viewBox="0 0 29 27" fill="none" xmlns="http://www.w3.org/2000/svg">
<g id="60e4a1e738075673bae7fba9_icon-preview-1-crypto-template.svg" clip-path="url(#clip0_13_151)">
<path id="Vector" opacity="0.4" d="M22.6319 6.7876C26.1005 6.7876 28.9238 9.70258 28.9238 13.2853V20.4069C28.9238 23.9809 26.1076 26.8886 22.6461 26.8886H6.91497C3.44495 26.8886 0.620255 23.9751 0.620255 20.3923V13.2707C0.620255 9.69674 3.43788 6.7876 6.90082 6.7876H8.23109H22.6319Z" fill="white"/>
<path id="Vector_2" d="M15.5449 19.1578L19.6617 14.9577C20.0862 14.5236 20.0862 13.825 19.6588 13.3924C19.2315 12.9611 18.5423 12.9626 18.1177 13.3952L15.8633 15.6951V1.10681C15.8633 0.495907 15.3751 0 14.7722 0C14.1708 0 13.684 0.495907 13.684 1.10681V15.6951L11.4282 13.3952C11.0036 12.9626 10.3144 12.9611 9.88705 13.3924C9.67335 13.6094 9.5658 13.8926 9.5658 14.1772C9.5658 14.4589 9.67335 14.7421 9.88421 14.9577L14.001 19.1578C14.2062 19.3663 14.4835 19.4841 14.7722 19.4841C15.0623 19.4841 15.3397 19.3663 15.5449 19.1578Z" fill="white"/>
</g>
<defs>
<clipPath id="clip0_13_151">
<rect width="29" height="27" fill="white"/>
</clipPath>
</defs>
</svg>
