<svg width="25" height="33" viewBox="0 0 25 33" fill="none" xmlns="http://www.w3.org/2000/svg">
<g id="60e4a1e7380756f05de7fb9f_icon-spec-1-3-crypto-template.svg" clip-path="url(#clip0_2_596)">
<path id="Vector" d="M6.70862 12.5681V8.3489C6.70862 6.78233 7.32846 5.27992 8.43178 4.17219C9.5351 3.06446 11.0315 2.44214 12.5919 2.44214C14.1522 2.44214 15.6486 3.06446 16.7519 4.17219C17.8553 5.27992 18.4751 6.78233 18.4751 8.3489V12.5681" stroke="white" stroke-opacity="0.4" stroke-width="4" stroke-linecap="round" stroke-linejoin="round"/>
<path id="Vector_2" d="M20.758 11.2656H4.42578C2.21664 11.2656 0.425781 13.0565 0.425781 15.2656V28.6012C0.425781 30.8104 2.21664 32.6012 4.42578 32.6012H20.758C22.9671 32.6012 24.758 30.8104 24.758 28.6012V15.2656C24.758 13.0565 22.9671 11.2656 20.758 11.2656Z" fill="white"/>
</g>
<defs>
<clipPath id="clip0_2_596">
<rect width="25" height="33" fill="white"/>
</clipPath>
</defs>
</svg>
