<svg width="36" height="37" viewBox="0 0 36 37" fill="none" xmlns="http://www.w3.org/2000/svg">
<g id="60e4a1e73807562c76e7fb9d_icon-spec-1-2-crypto-template.svg" clip-path="url(#clip0_2_589)">
<path id="Vector" d="M17.5917 36.1133C27.3073 36.1133 35.1834 28.2373 35.1834 18.5216C35.1834 8.806 27.3073 0.929932 17.5917 0.929932C7.87607 0.929932 0 8.806 0 18.5216C0 28.2373 7.87607 36.1133 17.5917 36.1133Z" fill="white" fill-opacity="0.4"/>
<path id="Vector_2" d="M21.0348 7.65798C21.0348 7.21253 20.4962 6.98945 20.1813 7.30443L8.71102 18.7747C8.59059 18.8953 8.50859 19.0488 8.47539 19.216C8.44218 19.3831 8.45926 19.5564 8.52445 19.7138C8.58965 19.8713 8.70004 20.0059 8.84169 20.1006C8.98334 20.1954 9.14989 20.246 9.32031 20.2462H13.6487C13.9248 20.2462 14.1487 20.4701 14.1487 20.7462V29.3856C14.1487 29.831 14.6872 30.0541 15.0022 29.7391L26.4725 18.2689C26.5929 18.1483 26.6749 17.9947 26.7081 17.8276C26.7413 17.6604 26.7242 17.4872 26.659 17.3297C26.5938 17.1723 26.4834 17.0377 26.3418 16.9429C26.2001 16.8482 26.0336 16.7975 25.8632 16.7974H21.5348C21.2587 16.7974 21.0348 16.5735 21.0348 16.2974V7.65798Z" fill="white"/>
</g>
<defs>
<clipPath id="clip0_2_589">
<rect width="36" height="37" fill="white"/>
</clipPath>
</defs>
</svg>
