<svg width="23" height="26" viewBox="0 0 23 26" fill="none" xmlns="http://www.w3.org/2000/svg">
<g id="60e4a1e738075635ede7fbe1_icon-app-2-crypto-template.svg" clip-path="url(#clip0_2_804)">
<path id="Vector" d="M16.5185 16.5949L13.0659 13.1357L1.64105 24.7384C1.75026 24.6972 1.85613 24.6476 1.9577 24.59L16.5185 16.5949Z" fill="white"/>
<path id="Vector_2" d="M0.00850522 1.94011C0.0144238 3.35543 0.107148 22.2237 0.116026 23.4134C0.0902982 23.6611 0.125802 23.9113 0.219399 24.142C0.312996 24.3725 0.4618 24.5765 0.652648 24.7357L12.5668 12.6372L0.600367 0.643555C0.393848 0.785546 0.229684 0.981195 0.125431 1.20957C0.0211803 1.43795 -0.0192362 1.69047 0.00850522 1.94011Z" fill="white"/>
<path id="Vector_3" d="M17.1586 8.98096L13.5612 12.6341L17.1626 16.2417L22.1126 13.5229C22.7044 13.1952 23.3338 12.3599 22.1126 11.6918L17.1586 8.98096Z" fill="white"/>
<path id="Vector_4" d="M1.95769 0.659347C1.79957 0.5753 1.62735 0.521278 1.44968 0.5L13.063 12.1343L16.5155 8.62869L1.95769 0.659347Z" fill="white"/>
</g>
<defs>
<clipPath id="clip0_2_804">
<rect width="23" height="25" fill="white" transform="translate(0 0.5)"/>
</clipPath>
</defs>
</svg>
