<svg width="34" height="23" viewBox="0 0 34 23" fill="none" xmlns="http://www.w3.org/2000/svg">
<g id="60e4a1e73807561e40e7fbaa_icon-preview-3-crypto-template.svg" clip-path="url(#clip0_13_165)">
<path id="Vector" d="M29.5436 3.65381H6.39514C4.186 3.65381 2.39514 5.44467 2.39514 7.65381V18.7249C2.39514 20.934 4.186 22.7249 6.39514 22.7249H29.5436C31.7528 22.7249 33.5436 20.934 33.5436 18.7249V7.65381C33.5436 5.44467 31.7528 3.65381 29.5436 3.65381Z" fill="white" fill-opacity="0.4"/>
<path id="Vector_2" d="M26.3587 0.163574H4C1.79086 0.163574 0 1.95444 0 4.16357V15.2347C0 17.4438 1.79086 19.2347 4 19.2347H26.3587C28.5678 19.2347 30.3587 17.4438 30.3587 15.2347V4.16357C30.3587 1.95444 28.5678 0.163574 26.3587 0.163574Z" fill="white"/>
<path id="Vector_3" d="M15.1794 13.7446C17.4137 13.7446 19.225 11.9333 19.225 9.69894C19.225 7.46461 17.4137 5.65332 15.1794 5.65332C12.9451 5.65332 11.1338 7.46461 11.1338 9.69894C11.1338 11.9333 12.9451 13.7446 15.1794 13.7446Z" fill="#0328EE"/>
<path id="Vector_4" d="M6.06441 8.29239C7.20455 8.29239 8.12882 7.36813 8.12882 6.22798C8.12882 5.08784 7.20455 4.16357 6.06441 4.16357C4.92427 4.16357 4 5.08784 4 6.22798C4 7.36813 4.92427 8.29239 6.06441 8.29239Z" fill="#0328EE"/>
<path id="Vector_5" d="M24.2943 15.2348C25.4344 15.2348 26.3587 14.3105 26.3587 13.1704C26.3587 12.0302 25.4344 11.106 24.2943 11.106C23.1542 11.106 22.2299 12.0302 22.2299 13.1704C22.2299 14.3105 23.1542 15.2348 24.2943 15.2348Z" fill="#0328EE"/>
</g>
<defs>
<clipPath id="clip0_13_165">
<rect width="34" height="23" fill="white"/>
</clipPath>
</defs>
</svg>
