<svg width="32" height="32" viewBox="0 0 32 32" fill="none" xmlns="http://www.w3.org/2000/svg">
<g id="60e4a1e7380756523de7fba6_icon-spec-2-3-crypto-template.svg" clip-path="url(#clip0_13_111)">
<path id="Vector" d="M16.2423 0.88916C7.32075 0.88916 0.856079 8.16767 0.856079 16.2447C0.856079 18.8244 1.6085 21.4809 2.92907 23.9071C3.17476 24.3063 3.20547 24.813 3.03656 25.2891L2.00774 28.7287C1.77741 29.5579 2.48376 30.1721 3.26689 29.9264L6.3687 29.0051C7.21326 28.7287 7.87354 29.0819 8.65821 29.5579C10.9001 30.8785 13.6933 31.5541 16.2116 31.5541C23.8279 31.5541 31.5671 25.6729 31.5671 16.1986C31.5671 8.02947 24.9642 0.88916 16.2423 0.88916Z" fill="white"/>
<path id="Vector_2" fill-rule="evenodd" clip-rule="evenodd" d="M9.1021 18.2254C8.02722 18.2254 7.1366 17.3348 7.1366 16.2599C7.1366 15.1697 8.01186 14.2944 9.1021 14.2944C10.1923 14.2944 11.0676 15.1697 11.0676 16.2599C11.0676 17.3348 10.1923 18.21 9.1021 18.2254ZM16.1815 18.2256C15.0913 18.2103 14.216 17.335 14.216 16.2448C14.216 15.1699 15.1066 14.2793 16.1815 14.2946C17.2718 14.2946 18.147 15.1699 18.147 16.2601C18.147 17.335 17.2718 18.2256 16.1815 18.2256ZM21.2947 16.2603C21.2947 17.3352 22.1699 18.2258 23.2602 18.2258C24.3504 18.2258 25.2257 17.3352 25.2257 16.2603C25.2257 15.1701 24.3504 14.2948 23.2602 14.2948C22.1699 14.2948 21.2947 15.1701 21.2947 16.2603Z" fill="#0328EE"/>
</g>
<defs>
<clipPath id="clip0_13_111">
<rect width="32" height="32" fill="white"/>
</clipPath>
</defs>
</svg>
