<svg width="58" height="47" viewBox="0 0 58 47" fill="none" xmlns="http://www.w3.org/2000/svg">
<g id="60e4a1e73807561737e7fb9a_icon-section-about-4-crypto-template.svg" opacity="0.84992">
<path id="Vector" d="M43.6973 9.50315C41.2007 6.49101 37.8316 4.31968 34.05 3.28553C30.2685 2.25139 26.2586 2.40483 22.5677 3.72491C18.877 5.04499 15.6851 7.46739 13.4278 10.6614C11.1705 13.8556 9.95794 17.6656 9.95538 21.5716V26.7537" stroke="white" stroke-opacity="0.4" stroke-width="4.92496" stroke-linecap="round" stroke-linejoin="round"/>
<path id="Vector_2" d="M16.0117 37.7568C18.6299 40.5201 22.0206 42.4369 25.7448 43.259C29.4691 44.0811 33.3554 43.7707 36.9005 42.368C40.4455 40.9651 43.4862 38.5346 45.6288 35.3911C47.7713 32.2475 48.9172 28.5357 48.9178 24.7361V21.286" stroke="white" stroke-opacity="0.4" stroke-width="4.92496" stroke-linecap="round" stroke-linejoin="round"/>
<path id="Vector_3" d="M18.5805 18.2664C18.5696 18.4742 18.5007 18.676 18.3779 18.8512L10.3067 30.2401C10.0841 30.5529 9.71758 30.7317 9.33315 30.7116C8.94873 30.6916 8.60301 30.4755 8.41441 30.1413L1.58263 17.9744C1.38463 17.6204 1.39402 17.1863 1.61085 16.8419C1.82627 16.496 2.21182 16.2958 2.61858 16.3171L17.5215 17.095C17.9283 17.1163 18.2908 17.3554 18.4687 17.7219C18.5537 17.8945 18.5902 18.0824 18.5805 18.2664Z" fill="white"/>
<path id="Vector_4" d="M39.8516 28.6356C39.8588 28.4304 39.9233 28.2301 40.0414 28.0553L47.8076 16.6804C48.0219 16.3679 48.3804 16.1852 48.7599 16.1984C49.1396 16.2116 49.4844 16.4187 49.6762 16.7453L56.6269 28.6321C56.8284 28.9781 56.8267 29.4065 56.6186 29.75C56.4121 30.095 56.0352 30.299 55.6335 30.285L40.9167 29.7731C40.515 29.7592 40.1532 29.5294 39.9714 29.1709C39.8845 29.0021 39.8452 28.8173 39.8516 28.6356Z" fill="white"/>
</g>
</svg>
